OpenSim_Sub07_CSBaseline_RCS.mot
version=1
nRows=33
nColumns=11
inDegrees=no
endheader
time	Top_Thigh	Med_Thigh	Bot_Thigh	Top_Shank	2nd_Top_Shank	2nd_Bot_Shank	Bot_Shank	BNOx	BNOy	BNOZ
38.94000000	1993.01787011	1838.37869878	1469.21739352	1055.52070320	1227.49187116	1090.21204145	1079.92358378	25.32259094	-75.96762233	135.42445117
38.95000000	1989.74078133	1833.79954521	1472.59761426	1053.66224122	1223.69331848	1086.44030284	1076.63884639	26.51156245	-75.40211516	132.24833471
38.96000000	1986.76830636	1828.80251590	1475.43477520	1051.90845208	1219.74970240	1082.41885245	1073.32184102	27.06621206	-74.74023766	129.95612802
38.97000000	1984.33926591	1823.90818025	1478.06472187	1050.45051068	1215.90019244	1078.37802048	1070.01519208	27.29277226	-73.96922891	128.25798908
38.98000000	1982.69248069	1819.63710767	1480.82329979	1049.47959190	1212.38395808	1074.54813711	1066.76152400	27.49747552	-73.07632803	126.86407589
38.99000000	1982.06677139	1816.50986755	1484.04635449	1049.18687061	1209.44016885	1071.15953255	1063.60346120	27.98655434	-72.04877409	125.48454641
39	1982.70095872	1815.04702932	1488.06973151	1049.76352171	1207.30799425	1068.44253698	1060.58362811	29.06624120	-70.87380621	123.82955865
39.01000000	1984.79742996	1815.70181960	1493.18411738	1051.37638626	1206.19851610	1066.60071339	1057.74190474	31.00008123	-69.54285267	121.64627114
39.02000000	1988.28930672	1818.42976006	1499.34644545	1054.01246327	1206.11523069	1065.63979847	1055.09788835	33.73613329	-68.07830249	118.95529974
39.03000000	1992.98902489	1822.96329947	1506.36405991	1057.57814599	1206.96859386	1065.47686253	1052.66208538	37.08105438	-66.51642143	115.89982466
39.04000000	1998.70845111	1829.03383438	1514.04359933	1061.97944746	1208.66862257	1066.02855768	1050.44495940	40.84083450	-64.89354065	112.62360425
39.05000000	2005.25945201	1836.37276136	1522.19170229	1067.12238073	1211.12533381	1067.21153599	1048.45697397	44.82146366	-63.24599136	109.27039686
39.06000000	2012.45389422	1844.71147694	1530.61500737	1072.91295882	1214.24874452	1068.94244958	1046.70859265	48.82893185	-61.61010475	105.98396083
39.07000000	2020.10364439	1853.78137769	1539.12015314	1079.25719478	1217.94887169	1071.13795051	1045.21027901	52.66922908	-60.02221199	102.90805451
39.08000000	2028.02056915	1863.31386016	1547.51377819	1086.06110164	1222.13573227	1073.71469090	1043.97249662	56.14834536	-58.51864428	100.18643625
39.09000000	2036.01653512	1873.04032089	1555.60252109	1093.23069244	1226.71934324	1076.58932282	1043.00570903	59.07227069	-57.13573282	97.96286441
39.10000000	2043.90340895	1882.69215646	1563.19302041	1100.67198023	1231.60972157	1079.67849837	1042.32037981	61.24699507	-55.90980877	96.38109732
39.11000000	2051.49305727	1892.00076339	1570.09191474	1108.29097804	1236.71688421	1082.89886965	1041.92697253	62.47850850	-54.87720335	95.58489333
39.12000000	2058.59734671	1900.69753826	1576.10584265	1115.99369890	1241.95084815	1086.16708874	1041.83595075	62.57280099	-54.07424773	95.71801080
39.13000000	2065.02814390	1908.51387761	1581.04144272	1123.68615586	1247.22163035	1089.39980773	1042.05777803	61.33586255	-53.53727310	96.92420808
39.14000000	2070.59731549	1915.18117800	1584.70535352	1131.27436195	1252.43924778	1092.51367873	1042.60291795	58.57368317	-53.30261066	99.34724350
39.15000000	2075.12230723	1920.43849706	1586.91066712	1138.66533779	1257.51512428	1095.42703508	1043.48068838	54.10278454	-53.40510076	103.12290127
39.16000000	2078.54888499	1924.20109752	1587.61890578	1145.78927811	1262.39304216	1098.09687948	1044.67405693	47.98191722	-53.84529483	108.20356007
39.17000000	2080.95113471	1926.56044715	1586.94002199	1152.59955176	1267.04914215	1100.51888390	1046.13964085	40.51206060	-54.58945534	114.35819307
39.18000000	2082.40872146	1927.61567483	1584.99042168	1159.05053518	1271.46097184	1102.69040161	1047.83291176	32.00472578	-55.60235393	121.34779929
39.19000000	2083.00131031	1927.46590943	1581.88651083	1165.09660480	1275.60607887	1104.60878587	1049.70934124	22.77142383	-56.84876226	128.93337775
39.20000000	2082.80856636	1926.21027983	1577.74469539	1170.69213705	1279.46201084	1106.27138994	1051.72440091	13.12366584	-58.29345197	136.87592747
39.21000000	2081.91015466	1923.94791490	1572.68138131	1175.79150836	1283.00631537	1107.67556708	1053.83356236	3.37296291	-59.90119471	144.93644747
39.22000000	2080.38574030	1920.77794351	1566.81297456	1180.34909516	1286.21654007	1108.81867056	1055.99229720	-6.16917388	-61.63676213	152.87593676
39.23000000	2078.31498835	1916.79949454	1560.25588108	1184.31927387	1289.07023256	1109.69805362	1058.15607703	-15.19123344	-63.46492588	160.45539438
39.24000000	2075.77756389	1912.11169685	1553.12650684	1187.65642094	1291.54494045	1110.31106954	1060.28037346	-23.38170468	-65.35045760	167.43581933
39.25000000	2072.85313200	1906.81367933	1545.54125780	1190.31491278	1293.61821136	1110.65507158	1062.32065807	-30.42907652	-67.25812895	173.57821063
39.26000000	2069.62135775	1901.00457085	1537.61653992	1192.24912584	1295.26759290	1110.72741299	1064.23240248	-36.02183786	-69.15271157	178.64356731
